<svg width="66" height="66" viewBox="0 0 66 66" fill="none" xmlns="http://www.w3.org/2000/svg">
<path fill-rule="evenodd" clip-rule="evenodd" d="M33 0C33.8284 0 34.5 0.671573 34.5 1.5V8.5C34.5 9.32843 33.8284 10 33 10C32.1716 10 31.5 9.32843 31.5 8.5V1.5C31.5 0.671573 32.1716 0 33 0ZM33 44C39.0751 44 44 39.0751 44 33C44 26.9249 39.0751 22 33 22C26.9249 22 22 26.9249 22 33C22 39.0751 26.9249 44 33 44ZM33 47C40.732 47 47 40.732 47 33C47 25.268 40.732 19 33 19C25.268 19 19 25.268 19 33C19 40.732 25.268 47 33 47ZM34.5 57.5C34.5 56.6716 33.8284 56 33 56C32.1716 56 31.5 56.6716 31.5 57.5V64.5C31.5 65.3284 32.1716 66 33 66C33.8284 66 34.5 65.3284 34.5 64.5V57.5ZM56.3347 9.66444C56.9205 10.2502 56.9205 11.2 56.3347 11.7858L51.385 16.7355C50.7992 17.3213 49.8494 17.3213 49.2636 16.7355C48.6779 16.1497 48.6779 15.2 49.2636 14.6142L54.2134 9.66444C54.7992 9.07865 55.7489 9.07865 56.3347 9.66444ZM16.7367 51.3863C17.3225 50.8006 17.3225 49.8508 16.7367 49.265C16.1509 48.6792 15.2012 48.6792 14.6154 49.265L9.66562 54.2148C9.07983 54.8006 9.07983 55.7503 9.66562 56.3361C10.2514 56.9219 11.2012 56.9219 11.7869 56.3361L16.7367 51.3863ZM66 33C66 33.8284 65.3284 34.5 64.5 34.5H57.5C56.6716 34.5 56 33.8284 56 33C56 32.1716 56.6716 31.5 57.5 31.5H64.5C65.3284 31.5 66 32.1716 66 33ZM8.5 34.5C9.32843 34.5 10 33.8284 10 33C10 32.1716 9.32843 31.5 8.5 31.5H1.5C0.671573 31.5 0 32.1716 0 33C0 33.8284 0.671572 34.5 1.5 34.5H8.5ZM56.3347 56.3356C55.7489 56.9213 54.7992 56.9213 54.2134 56.3356L49.2636 51.3858C48.6779 50.8 48.6779 49.8503 49.2636 49.2645C49.8494 48.6787 50.7992 48.6787 51.385 49.2645L56.3347 54.2142C56.9205 54.8 56.9205 55.7498 56.3347 56.3356ZM14.6154 16.735C15.2012 17.3208 16.1509 17.3208 16.7367 16.735C17.3225 16.1492 17.3225 15.1994 16.7367 14.6137L11.7869 9.66391C11.2012 9.07812 10.2514 9.07812 9.66562 9.66391C9.07983 10.2497 9.07983 11.1994 9.66562 11.7852L14.6154 16.735Z" fill="white"/>
</svg>
