<svg width="53" height="53" viewBox="0 0 53 53" fill="none" xmlns="http://www.w3.org/2000/svg">
<path fill-rule="evenodd" clip-rule="evenodd" d="M33 0C33.8284 0 34.5 0.671573 34.5 1.5V8.5C34.5 9.32843 33.8284 10 33 10C32.1716 10 31.5 9.32843 31.5 8.5V1.5C31.5 0.671573 32.1716 0 33 0ZM33 44C39.0751 44 44 39.0751 44 33C44 26.9249 39.0751 22 33 22C26.9249 22 22 26.9249 22 33C22 39.0751 26.9249 44 33 44ZM33 47C40.732 47 47 40.732 47 33C47 25.268 40.732 19 33 19C25.268 19 19 25.268 19 33C19 40.732 25.268 47 33 47ZM34.5 57.5C34.5 56.6716 33.8284 56 33 56C32.1716 56 31.5 56.6716 31.5 57.5V64.5C31.5 65.3284 32.1716 66 33 66C33.8284 66 34.5 65.3284 34.5 64.5V57.5ZM56.3347 9.66444C56.9205 10.2502 56.9205 11.2 56.3347 11.7858L51.385 16.7355C50.7992 17.3213 49.8494 17.3213 49.2636 16.7355C48.6779 16.1497 48.6779 15.2 49.2636 14.6142L54.2134 9.66444C54.7992 9.07865 55.7489 9.07865 56.3347 9.66444ZM16.7367 51.3863C17.3225 50.8006 17.3225 49.8508 16.7367 49.265C16.1509 48.6792 15.2012 48.6792 14.6154 49.265L9.66562 54.2148C9.07983 54.8006 9.07983 55.7503 9.66562 56.3361C10.2514 56.9219 11.2012 56.9219 11.7869 56.3361L16.7367 51.3863ZM66 33C66 33.8284 65.3284 34.5 64.5 34.5H57.5C56.6716 34.5 56 33.8284 56 33C56 32.1716 56.6716 31.5 57.5 31.5H64.5C65.3284 31.5 66 32.1716 66 33ZM8.5 34.5C9.32843 34.5 10 33.8284 10 33C10 32.1716 9.32843 31.5 8.5 31.5H1.5C0.671573 31.5 0 32.1716 0 33C0 33.8284 0.671572 34.5 1.5 34.5H8.5ZM56.3347 56.3356C55.7489 56.9213 54.7992 56.9213 54.2134 56.3356L49.2636 51.3858C48.6779 50.8 48.6779 49.8503 49.2636 49.2645C49.8494 48.6787 50.7992 48.6787 51.385 49.2645L56.3347 54.2142C56.9205 54.8 56.9205 55.7498 56.3347 56.3356ZM14.6154 16.735C15.2012 17.3208 16.1509 17.3208 16.7367 16.735C17.3225 16.1492 17.3225 15.1994 16.7367 14.6137L11.7869 9.66391C11.2012 9.07812 10.2514 9.07812 9.66562 9.66391C9.07983 10.2497 9.07983 11.1994 9.66562 11.7852L14.6154 16.735Z" fill="white"/>
</svg>
<svg width="53" height="53" viewBox="0 0 53 53" fill="none" xmlns="http://www.w3.org/2000/svg">
<path fill-rule="evenodd" clip-rule="evenodd" d="M26.5001 0.390625C27.3285 0.390625 28.0001 1.0622 28.0001 1.89062V7.35938C28.0001 8.1878 27.3285 8.85938 26.5001 8.85938C25.6716 8.85938 25.0001 8.1878 25.0001 7.35938V1.89062C25.0001 1.0622 25.6716 0.390625 26.5001 0.390625ZM37.4375 26.5C37.4375 32.5406 32.5406 37.4375 26.5 37.4375C20.4594 37.4375 15.5625 32.5406 15.5625 26.5C15.5625 20.4594 20.4594 15.5625 26.5 15.5625C32.5406 15.5625 37.4375 20.4594 37.4375 26.5ZM28.0001 45.6406C28.0001 44.8122 27.3285 44.1406 26.5001 44.1406C25.6716 44.1406 25.0001 44.8122 25.0001 45.6406V51.1094C25.0001 51.9378 25.6716 52.6094 26.5001 52.6094C27.3285 52.6094 28.0001 51.9378 28.0001 51.1094V45.6406ZM44.9621 8.03707C45.5479 8.62286 45.5479 9.57261 44.9621 10.1584L41.0951 14.0254C40.5094 14.6112 39.5596 14.6112 38.9738 14.0254C38.388 13.4396 38.388 12.4898 38.9738 11.9041L42.8408 8.03707C43.4266 7.45128 44.3764 7.45128 44.9621 8.03707ZM14.0265 41.0963C14.6123 40.5106 14.6123 39.5608 14.0265 38.975C13.4407 38.3892 12.4909 38.3892 11.9051 38.975L8.03816 42.842C7.45237 43.4278 7.45237 44.3776 8.03816 44.9633C8.62395 45.5491 9.57369 45.5491 10.1595 44.9633L14.0265 41.0963ZM52.6094 26.5C52.6094 27.3284 51.9379 28 51.1094 28H45.6407C44.8123 28 44.1407 27.3284 44.1407 26.5C44.1407 25.6716 44.8123 25 45.6407 25H51.1094C51.9379 25 52.6094 25.6716 52.6094 26.5ZM7.35938 28C8.1878 28 8.85938 27.3284 8.85938 26.5C8.85938 25.6716 8.1878 25 7.35938 25H1.89063C1.0622 25 0.390625 25.6716 0.390625 26.5C0.390625 27.3284 1.0622 28 1.89062 28H7.35938ZM44.9621 44.9629C44.3764 45.5487 43.4266 45.5487 42.8408 44.9629L38.9738 41.0959C38.388 40.5102 38.388 39.5604 38.9738 38.9746C39.5596 38.3888 40.5094 38.3888 41.0951 38.9746L44.9621 42.8416C45.5479 43.4274 45.5479 44.3771 44.9621 44.9629ZM11.9051 14.025C12.4909 14.6108 13.4407 14.6108 14.0265 14.025C14.6123 13.4392 14.6123 12.4894 14.0265 11.9037L10.1595 8.03666C9.57369 7.45087 8.62395 7.45087 8.03816 8.03666C7.45237 8.62245 7.45237 9.57219 8.03816 10.158L11.9051 14.025Z" fill="currentColor"/>
</svg>
