<svg width="30" height="30" viewBox="0 0 30 30" fill="none" xmlns="http://www.w3.org/2000/svg">
<path d="M12.8294 2.6899C11.2128 2.97495 9.6682 3.57562 8.28376 4.45761C6.89931 5.3396 5.70214 6.48564 4.7606 7.8303C3.81906 9.17495 3.15159 10.6919 2.7963 12.2945C2.44101 13.8971 2.40486 15.554 2.6899 17.1706C2.97495 18.7872 3.57562 20.3318 4.45761 21.7162C5.3396 23.1007 6.48564 24.2979 7.8303 25.2394C9.17495 26.1809 10.6919 26.8484 12.2945 27.2037C13.8971 27.559 15.554 27.5951 17.1706 27.3101C18.7872 27.0251 20.3318 26.4244 21.7162 25.5424C23.1007 24.6604 24.2979 23.5144 25.2394 22.1697C26.1809 20.825 26.8484 19.3081 27.2037 17.7055C27.559 16.1029 27.5951 14.446 27.3101 12.8294C27.025 11.2128 26.4244 9.6682 25.5424 8.28375C24.6604 6.89931 23.5144 5.70214 22.1697 4.7606C20.825 3.81906 19.3081 3.15159 17.7055 2.7963C16.1029 2.44101 14.446 2.40486 12.8294 2.6899L12.8294 2.6899Z" stroke="#FF1A1A" stroke-width="2"/>
<path d="M15 17L15 7" stroke="#FF1A1A" stroke-width="2" stroke-linecap="round"/>
<path d="M15 21.25L15 22.5" stroke="#FF1A1A" stroke-width="2" stroke-linecap="round"/>
</svg>
