<svg width="426" height="430" viewBox="0 0 426 430" fill="none" xmlns="http://www.w3.org/2000/svg">
<path d="M224.936 5.87965e-05C242.819 -0.00375854 343.298 -0.0252075 399.178 71.2271L337.644 128.209C293.993 75.4479 224.57 81.7792 224.57 81.7792C224.57 81.7792 96.2444 80.1965 96.2444 221.068C109.919 346.638 224.57 346.638 224.57 346.638C224.57 346.638 283.474 346.638 305.037 327.644V241.644H271.904L349.215 156.172L426 241.644H391.289V375.656C391.289 375.656 337.644 424.724 224.57 430C195.119 430 13.6741 417.865 0 221.068C-3.10439e-06 5.80381 207.741 0.000137962 224.57 0.000111924L224.936 5.87965e-05Z" fill="#7d91f5" fill-opacity="0.7"/>
</svg>
