<svg width="51" height="62" viewBox="0 0 51 62" fill="none" xmlns="http://www.w3.org/2000/svg">
<path d="M46.5318 55.5408L45.7276 54.2746L46.5318 55.5408ZM45.5522 51.9705L45.8543 50.5012L45.5522 51.9705ZM48.8992 53.2967L47.4238 53.5675L48.8992 53.2967ZM28.5723 5.99802L27.3877 5.07783L28.5723 5.99802ZM30.2536 2.81463L28.9564 3.56784L30.2536 2.81463ZM21.5719 5.56204C23.4342 4.87422 25.3218 4.40236 27.2078 4.13315L26.7839 1.16325C24.6891 1.46226 22.5951 1.98605 20.5325 2.74785L21.5719 5.56204ZM5.39863 40.679C0.16748 26.5156 7.40852 10.7932 21.5719 5.56204L20.5325 2.74785C4.81488 8.55305 -3.22075 26.0008 2.58445 41.7184L5.39863 40.679ZM40.5156 56.8523C26.3522 62.0835 10.6298 54.8424 5.39863 40.679L2.58445 41.7184C8.38964 57.4361 25.8374 65.4717 41.555 59.6665L40.5156 56.8523ZM45.7276 54.2746C44.1193 55.296 42.378 56.1645 40.5156 56.8523L41.555 59.6665C43.6178 58.9047 45.5496 57.9415 47.3359 56.807L45.7276 54.2746ZM45.8543 50.5012C36.9037 48.6613 29.0844 42.3816 25.6878 33.1852L22.8736 34.2246C26.6442 44.4335 35.3269 51.3999 45.2502 53.4398L45.8543 50.5012ZM25.6878 33.1852C22.2912 23.9889 24.1513 14.1344 29.7569 6.91822L27.3877 5.07783C21.1729 13.0782 19.1031 24.0158 22.8736 34.2246L25.6878 33.1852ZM47.3359 56.807C48.121 56.3084 48.861 55.8433 49.3658 55.4057C49.8488 54.9871 50.5885 54.1914 50.3745 53.0259L47.4238 53.5675C47.3855 53.3584 47.438 53.1692 47.4964 53.0619C47.5327 52.9953 47.5394 53.0187 47.401 53.1387C47.1066 53.3939 46.602 53.7192 45.7276 54.2746L47.3359 56.807ZM45.2502 53.4398C46.3725 53.6705 47.0569 53.8146 47.491 53.9665C47.7016 54.0402 47.7321 54.0766 47.6917 54.0443C47.616 53.9839 47.4705 53.8217 47.4238 53.5675L50.3745 53.0259C50.1506 51.8059 49.0647 51.3388 48.4817 51.1348C47.8103 50.8999 46.8821 50.7125 45.8543 50.5012L45.2502 53.4398ZM27.2078 4.13315C28.2333 3.98678 28.8282 3.90601 29.2178 3.90855C29.401 3.90974 29.4111 3.93191 29.3403 3.90484C29.2261 3.86125 29.0632 3.75169 28.9564 3.56784L31.5508 2.06142C30.9558 1.03664 29.8765 0.912772 29.2373 0.908613C28.5692 0.904265 27.7046 1.03184 26.7839 1.16325L27.2078 4.13315ZM29.7569 6.91822C30.4006 6.08955 30.9841 5.34381 31.3417 4.72883C31.6521 4.19487 32.1736 3.13405 31.5508 2.06142L28.9564 3.56784C28.8266 3.3443 28.8318 3.12647 28.85 3.03139C28.8598 2.98057 28.8603 3.02814 28.7481 3.22101C28.517 3.61857 28.0906 4.17297 27.3877 5.07783L29.7569 6.91822Z" fill="#C9C9C9" fill-opacity="0.8"/>
</svg>
