<svg width="53" height="53" viewBox="0 0 53 53" fill="none" xmlns="http://www.w3.org/2000/svg">
<path fill-rule="evenodd" clip-rule="evenodd" d="M26.5001 0.390625C27.3285 0.390625 28.0001 1.0622 28.0001 1.89062V7.35938C28.0001 8.1878 27.3285 8.85938 26.5001 8.85938C25.6716 8.85938 25.0001 8.1878 25.0001 7.35938V1.89062C25.0001 1.0622 25.6716 0.390625 26.5001 0.390625ZM37.4375 26.5C37.4375 32.5406 32.5406 37.4375 26.5 37.4375C20.4594 37.4375 15.5625 32.5406 15.5625 26.5C15.5625 20.4594 20.4594 15.5625 26.5 15.5625C32.5406 15.5625 37.4375 20.4594 37.4375 26.5ZM28.0001 45.6406C28.0001 44.8122 27.3285 44.1406 26.5001 44.1406C25.6716 44.1406 25.0001 44.8122 25.0001 45.6406V51.1094C25.0001 51.9378 25.6716 52.6094 26.5001 52.6094C27.3285 52.6094 28.0001 51.9378 28.0001 51.1094V45.6406ZM44.9621 8.03707C45.5479 8.62286 45.5479 9.57261 44.9621 10.1584L41.0951 14.0254C40.5094 14.6112 39.5596 14.6112 38.9738 14.0254C38.388 13.4396 38.388 12.4898 38.9738 11.9041L42.8408 8.03707C43.4266 7.45128 44.3764 7.45128 44.9621 8.03707ZM14.0265 41.0963C14.6123 40.5106 14.6123 39.5608 14.0265 38.975C13.4407 38.3892 12.4909 38.3892 11.9051 38.975L8.03816 42.842C7.45237 43.4278 7.45237 44.3776 8.03816 44.9633C8.62395 45.5491 9.57369 45.5491 10.1595 44.9633L14.0265 41.0963ZM52.6094 26.5C52.6094 27.3284 51.9379 28 51.1094 28H45.6407C44.8123 28 44.1407 27.3284 44.1407 26.5C44.1407 25.6716 44.8123 25 45.6407 25H51.1094C51.9379 25 52.6094 25.6716 52.6094 26.5ZM7.35938 28C8.1878 28 8.85938 27.3284 8.85938 26.5C8.85938 25.6716 8.1878 25 7.35938 25H1.89063C1.0622 25 0.390625 25.6716 0.390625 26.5C0.390625 27.3284 1.0622 28 1.89062 28H7.35938ZM44.9621 44.9629C44.3764 45.5487 43.4266 45.5487 42.8408 44.9629L38.9738 41.0959C38.388 40.5102 38.388 39.5604 38.9738 38.9746C39.5596 38.3888 40.5094 38.3888 41.0951 38.9746L44.9621 42.8416C45.5479 43.4274 45.5479 44.3771 44.9621 44.9629ZM11.9051 14.025C12.4909 14.6108 13.4407 14.6108 14.0265 14.025C14.6123 13.4392 14.6123 12.4894 14.0265 11.9037L10.1595 8.03666C9.57369 7.45087 8.62395 7.45087 8.03816 8.03666C7.45237 8.62245 7.45237 9.57219 8.03816 10.158L11.9051 14.025Z" fill="white"/>
</svg>
